<?xml version="1.0" encoding="utf-8"?>
<!-- Generator: Adobe Illustrator 24.0.2, SVG Export Plug-In . SVG Version: 6.00 Build 0)  -->
<svg version="1.1" id="Layer_1" xmlns="http://www.w3.org/2000/svg" xmlns:xlink="http://www.w3.org/1999/xlink" x="0px" y="0px"
	 viewBox="0 0 640 640" style="enable-background:new 0 0 640 640;" xml:space="preserve">
<style type="text/css">
	.st0{fill:#CA8A04;stroke:#231F20;stroke-width:12;stroke-miterlimit:10;}
</style>
<path class="st0" d="M192,576h320c17.7,0,32-14.3,32-32s-14.3-32-32-32v-66.7c18.6-6.6,32-24.4,32-45.3V112c0-26.5-21.5-48-48-48
	h-48v169.4c0,12.5-10.1,22.6-22.6,22.6c-6,0-11.8-2.4-16-6.6L368,208l-41.4,41.4c-4.2,4.2-10,6.6-16,6.6
	c-12.5,0-22.6-10.1-22.6-22.6V64h-96c-53,0-96,43-96,96v320C96,533,139,576,192,576z M160,480c0-17.7,14.3-32,32-32h256v64H192
	C174.3,512,160,497.7,160,480z"/>
</svg>
